<svg aria-hidden="true" style="position:absolute;width:0;height:0" xmlns="http://www.w3.org/2000/svg" overflow="hidden"><defs><symbol id="icon-envelope" viewBox="0 0 43 32"><path d="M38.667 0H4C1.794 0 0 1.675 0 3.734v22.404c0 2.059 1.794 3.734 4 3.734h34.667c2.206 0 4-1.675 4-3.734V3.734c0-2.059-1.794-3.734-4-3.734zm0 2.489c.181 0 .353.035.511.096L21.334 17.022 3.49 2.585c.158-.061.33-.096.511-.096h34.667zm0 24.894H4c-.736 0-1.333-.558-1.333-1.245V5.216L20.46 19.611c.251.203.563.304.874.304s.622-.101.874-.304L40.001 5.216v20.922c0 .687-.598 1.245-1.333 1.245z"/></symbol><symbol id="icon-facebook" viewBox="0 0 32 32"><path d="M21.329 5.313h2.921V.225C23.746.156 22.013 0 19.994 0c-4.212 0-7.097 2.649-7.097 7.519V12H8.249v5.688h4.648V32h5.699V17.689h4.46l.708-5.688h-5.169V8.082c.001-1.644.444-2.769 2.735-2.769z"/></symbol><symbol id="icon-instagram" viewBox="0 0 32 32"><path d="M31.969 9.408c-.075-1.7-.35-2.869-.744-3.882a7.806 7.806 0 0 0-1.851-2.838A7.867 7.867 0 0 0 26.542.844C25.523.45 24.36.175 22.66.1 20.947.019 20.403 0 16.059 0s-4.888.019-6.595.094c-1.7.075-2.869.35-3.882.744a7.803 7.803 0 0 0-2.838 1.85A7.867 7.867 0 0 0 .9 5.52C.506 6.539.231 7.702.156 9.402c-.081 1.713-.1 2.257-.1 6.601s.019 4.888.094 6.595c.075 1.7.35 2.869.744 3.882a7.895 7.895 0 0 0 1.85 2.838 7.867 7.867 0 0 0 2.832 1.844c1.019.394 2.182.669 3.882.744 1.706.075 2.25.094 6.595.094s4.888-.019 6.595-.094c1.7-.075 2.869-.35 3.882-.744a8.184 8.184 0 0 0 4.682-4.682c.394-1.019.669-2.182.744-3.882.075-1.707.094-2.251.094-6.595s-.006-4.888-.081-6.595zm-2.882 13.065c-.069 1.563-.331 2.407-.55 2.969a5.31 5.31 0 0 1-3.038 3.038c-.563.219-1.413.481-2.969.55-1.688.075-2.194.094-6.464.094s-4.782-.019-6.464-.094c-1.563-.069-2.407-.331-2.969-.55a4.926 4.926 0 0 1-1.838-1.194 4.974 4.974 0 0 1-1.194-1.838c-.219-.563-.481-1.413-.55-2.969-.075-1.688-.094-2.194-.094-6.464s.019-4.782.094-6.464c.069-1.563.331-2.407.55-2.969a4.868 4.868 0 0 1 1.2-1.838A4.974 4.974 0 0 1 6.639 3.55c.563-.219 1.413-.481 2.969-.55 1.688-.075 2.194-.094 6.464-.094 4.276 0 4.782.019 6.464.094 1.563.069 2.407.331 2.969.55a4.914 4.914 0 0 1 1.838 1.194 4.974 4.974 0 0 1 1.194 1.838c.219.563.481 1.413.55 2.969.075 1.688.094 2.194.094 6.464s-.019 4.77-.094 6.458z"/><path d="M16.059 7.783c-4.538 0-8.22 3.682-8.22 8.22s3.682 8.22 8.22 8.22c4.539 0 8.22-3.682 8.22-8.22s-3.682-8.22-8.22-8.22zm0 13.552a5.333 5.333 0 0 1 0-10.664 5.333 5.333 0 0 1 0 10.664zM26.524 7.458a1.919 1.919 0 1 1-3.838 0 1.919 1.919 0 0 1 3.838 0z"/></symbol><symbol id="icon-linkedin" viewBox="0 0 32 32"><path d="M31.992 32v-.001H32V20.263c0-5.741-1.236-10.164-7.948-10.164-3.227 0-5.392 1.771-6.276 3.449h-.093v-2.913h-6.364v21.364h6.627V21.42c0-2.785.528-5.479 3.977-5.479 3.399 0 3.449 3.179 3.449 5.657v10.401h6.62zM.528 10.636h6.635V32H.528V10.636zM3.843 0C1.722 0 0 1.721 0 3.843s1.721 3.879 3.843 3.879c2.121 0 3.843-1.757 3.843-3.879A3.846 3.846 0 0 0 3.843 0z"/></symbol><symbol id="icon-logo" viewBox="0 0 236 32"><path d="M12.894 1.698h5.133l3.234 9.499 3.234-9.499h5.174l-4.891 13.056 3.638 9.176 8.125-22.312h6.063L30.922 30.317h-4.689l-4.972-12.045-4.972 12.045H11.6L-.001 1.618h5.982l8.165 22.312 3.557-9.176-4.81-13.056zM53.448 30.72c-1.698 0-3.234-.283-4.608-.849-1.374-.593-2.547-1.388-3.517-2.385s-1.725-2.156-2.264-3.476a11.412 11.412 0 0 1-.768-4.163c0-1.509.256-2.924.768-4.244a10.157 10.157 0 0 1 2.223-3.517c.97-1.024 2.142-1.832 3.517-2.425 1.401-.593 2.964-.889 4.689-.889s3.261.296 4.608.889c1.374.593 2.533 1.388 3.476 2.385a9.75 9.75 0 0 1 2.183 3.476c.512 1.32.768 2.695.768 4.123 0 .35-.013.687-.04 1.011 0 .323-.027.593-.081.808H48.031c.081.835.283 1.576.606 2.223s.741 1.199 1.253 1.657c.512.458 1.091.808 1.738 1.051s1.32.364 2.021.364a6.26 6.26 0 0 0 3.032-.768c.97-.539 1.63-1.24 1.981-2.102l4.649 1.293c-.781 1.617-2.035 2.951-3.759 4.002-1.698 1.024-3.732 1.536-6.104 1.536zm5.497-12.773c-.135-1.59-.727-2.856-1.779-3.8-1.024-.97-2.277-1.455-3.759-1.455-.728 0-1.415.135-2.061.404-.62.243-1.172.593-1.657 1.051s-.889 1.011-1.213 1.657a6.098 6.098 0 0 0-.525 2.142h10.995zM81.081 30.72c-1.617 0-3.059-.364-4.325-1.091s-2.264-1.725-2.991-2.991v3.678h-4.729V.809h5.416v12.045c.755-1.293 1.738-2.291 2.951-2.991 1.24-.728 2.681-1.091 4.325-1.091 1.374 0 2.627.296 3.759.889s2.102 1.388 2.91 2.385c.835.997 1.469 2.169 1.9 3.517.458 1.347.687 2.762.687 4.244 0 1.536-.256 2.964-.768 4.285a10.72 10.72 0 0 1-2.061 3.476c-.889.97-1.94 1.738-3.153 2.304s-2.52.849-3.921.849zm-1.495-4.608c.862 0 1.657-.162 2.385-.485.728-.35 1.347-.808 1.859-1.374s.903-1.226 1.172-1.981c.296-.755.445-1.563.445-2.425s-.135-1.684-.404-2.466a6.206 6.206 0 0 0-1.172-2.061c-.485-.593-1.064-1.064-1.738-1.415s-1.415-.525-2.223-.525c-1.213 0-2.304.404-3.274 1.213a7.832 7.832 0 0 0-2.183 2.91v5.053c.189.539.458 1.024.808 1.455.377.431.795.808 1.253 1.132.458.296.957.539 1.496.728a5.46 5.46 0 0 0 1.576.243z" fill="var(--color1, #2196f3)"/><path d="M124.413 9.135c-.189-.189-.539-.445-1.051-.768-.485-.323-1.091-.633-1.819-.93-.701-.323-1.469-.593-2.304-.808s-1.684-.323-2.547-.323c-1.536 0-2.681.283-3.436.849s-1.132 1.361-1.132 2.385c0 .593.135 1.091.404 1.496.296.377.714.714 1.253 1.011s1.213.566 2.021.808c.835.243 1.792.499 2.87.768 1.401.377 2.668.781 3.8 1.213 1.159.431 2.129.97 2.91 1.617a6.537 6.537 0 0 1 1.859 2.344c.431.889.647 1.994.647 3.315 0 1.536-.296 2.856-.889 3.961a7.1 7.1 0 0 1-2.344 2.627c-.97.674-2.102 1.172-3.395 1.496-1.267.296-2.6.445-4.002.445-2.156 0-4.285-.323-6.387-.97s-3.988-1.563-5.659-2.749l2.466-4.81c.243.243.674.566 1.293.97.647.377 1.401.768 2.264 1.172.862.377 1.819.701 2.87.97s2.129.404 3.234.404c3.072 0 4.608-.984 4.608-2.951 0-.62-.175-1.145-.525-1.576s-.849-.808-1.496-1.132c-.647-.323-1.428-.62-2.344-.889s-1.94-.566-3.072-.889c-1.374-.377-2.573-.781-3.597-1.213-.997-.458-1.832-.984-2.506-1.576a6.39 6.39 0 0 1-1.536-2.102c-.323-.808-.485-1.765-.485-2.87 0-1.455.269-2.749.808-3.88s1.28-2.075 2.223-2.829c.97-.755 2.088-1.32 3.355-1.698 1.267-.404 2.627-.606 4.083-.606 2.021 0 3.88.323 5.578.97 1.698.62 3.18 1.361 4.446 2.223l-2.466 4.527zm20.834 20.089c-.728.323-1.617.647-2.668.97s-2.156.485-3.315.485a7.889 7.889 0 0 1-2.142-.283 5.07 5.07 0 0 1-1.738-.889 4.801 4.801 0 0 1-1.172-1.617c-.296-.674-.445-1.482-.445-2.425V13.298h-2.789V9.135h2.789V2.263h5.416v6.872h4.446v4.163h-4.446v10.348c0 .755.189 1.293.566 1.617.404.296.889.445 1.455.445s1.118-.094 1.657-.283c.539-.189.97-.35 1.293-.485l1.091 4.285zm10.501 1.496c-2.183 0-3.84-.701-4.972-2.102s-1.698-3.476-1.698-6.225V9.135h5.416v12.086c0 3.261 1.172 4.891 3.517 4.891 1.051 0 2.061-.31 3.032-.93.997-.647 1.805-1.617 2.425-2.91V9.135h5.417v14.956c0 .566.094.97.283 1.213.216.243.552.377 1.011.404v4.608a11.276 11.276 0 0 1-2.345.242c-.97 0-1.765-.216-2.385-.647-.593-.458-.943-1.078-1.051-1.859l-.121-1.698c-.943 1.455-2.156 2.547-3.638 3.274s-3.112 1.091-4.891 1.091zm28.505 0c-1.455 0-2.803-.283-4.042-.849s-2.304-1.347-3.193-2.344a11.32 11.32 0 0 1-2.102-3.476c-.485-1.347-.728-2.789-.728-4.325s.229-2.964.687-4.285c.485-1.32 1.145-2.479 1.981-3.476s1.832-1.779 2.991-2.344c1.159-.566 2.425-.849 3.8-.849 1.563 0 2.964.377 4.204 1.132 1.267.755 2.25 1.738 2.951 2.951V.81h5.416v23.283c0 .566.094.97.283 1.213s.512.377.97.404v4.608c-.943.189-1.711.283-2.304.283-.97 0-1.765-.243-2.385-.728s-.97-1.118-1.051-1.9l-.121-1.334c-.781 1.347-1.846 2.371-3.193 3.072a9.036 9.036 0 0 1-4.163 1.011zm1.414-4.608a5.46 5.46 0 0 0 1.576-.243 6.081 6.081 0 0 0 2.709-1.9c.377-.431.66-.903.849-1.415v-5.053a5.37 5.37 0 0 0-.93-1.617 5.51 5.51 0 0 0-1.334-1.293 6.083 6.083 0 0 0-1.576-.889 4.317 4.317 0 0 0-1.617-.323 5 5 0 0 0-2.264.525 5.277 5.277 0 0 0-1.738 1.455c-.485.593-.862 1.28-1.132 2.061s-.404 1.59-.404 2.425c0 .889.148 1.711.445 2.466s.701 1.415 1.213 1.981a5.57 5.57 0 0 0 1.819 1.334 5.815 5.815 0 0 0 2.385.485zm17.078 4.204V9.135h5.416v21.181h-5.416zm0-24.132V.808h5.416v5.376h-5.416zm21.297 24.536c-1.725 0-3.274-.296-4.648-.889s-2.547-1.388-3.517-2.385c-.943-1.024-1.671-2.196-2.183-3.517s-.768-2.708-.768-4.163c0-1.482.256-2.883.768-4.204s1.24-2.479 2.183-3.476c.97-1.024 2.142-1.832 3.517-2.425s2.924-.889 4.648-.889c1.725 0 3.261.296 4.608.889 1.374.593 2.533 1.401 3.476 2.425.97.997 1.711 2.156 2.223 3.476s.768 2.722.768 4.204c0 1.455-.256 2.843-.768 4.163s-1.24 2.493-2.183 3.517c-.943.997-2.102 1.792-3.476 2.385s-2.924.889-4.648.889zm-5.538-10.954c0 .943.135 1.805.404 2.587a6.866 6.866 0 0 0 1.172 1.981 5.707 5.707 0 0 0 1.779 1.334c.674.296 1.401.445 2.183.445s1.509-.148 2.183-.445a5.255 5.255 0 0 0 1.738-1.334 5.777 5.777 0 0 0 1.172-2.021c.296-.781.445-1.644.445-2.587 0-.916-.148-1.765-.445-2.547a5.777 5.777 0 0 0-1.172-2.021 4.81 4.81 0 0 0-1.738-1.293c-.674-.323-1.401-.485-2.183-.485s-1.509.162-2.183.485a5.707 5.707 0 0 0-1.779 1.334 6.75 6.75 0 0 0-1.172 2.021 7.773 7.773 0 0 0-.404 2.547z" fill="var(--color3, #212121)"/></symbol><symbol id="icon-smartphone" viewBox="0 0 21 32"><path d="M18.133 0H3.2C1.435 0 0 1.34 0 2.987v25.889c0 1.647 1.435 2.987 3.2 2.987h14.933c1.765 0 3.2-1.34 3.2-2.987V2.987c0-1.647-1.435-2.987-3.2-2.987zM3.2 1.991h14.933c.589 0 1.067.446 1.067.996v20.91H2.133V2.987c0-.549.478-.996 1.067-.996zm14.933 27.881H3.2c-.589 0-1.067-.446-1.067-.996v-2.987H19.2v2.987c0 .55-.478.996-1.067.996z"/><path d="M5.021 27.177c.417.389.417 1.02 0 1.409s-1.092.389-1.508 0c-.417-.389-.417-1.02 0-1.409s1.092-.389 1.508 0z"/></symbol><symbol id="icon-twitter" viewBox="0 0 32 32"><path d="M32 6.078c-1.19.522-2.458.868-3.78 1.036a6.523 6.523 0 0 0 2.886-3.626 13.11 13.11 0 0 1-4.16 1.588A6.574 6.574 0 0 0 22.154 3c-3.632 0-6.556 2.948-6.556 6.562 0 .52.044 1.02.152 1.496-5.454-.266-10.28-2.88-13.522-6.862a6.605 6.605 0 0 0-.898 3.316 6.57 6.57 0 0 0 2.914 5.452 6.479 6.479 0 0 1-2.964-.808v.072c0 3.188 2.274 5.836 5.256 6.446a6.548 6.548 0 0 1-1.72.216 5.8 5.8 0 0 1-1.242-.112c.85 2.598 3.262 4.508 6.13 4.57a13.182 13.182 0 0 1-8.134 2.798c-.538 0-1.054-.024-1.57-.09A18.469 18.469 0 0 0 10.064 29c12.072 0 18.672-10 18.672-18.668 0-.29-.01-.57-.024-.848A13.087 13.087 0 0 0 32 6.078z"/></symbol><symbol id="icon-Client1" viewBox="0 0 60 32"><path d="M24.533 7.111l2.598 2.46h7.248v6.861l2.598 2.46V7.111H24.533z"/><path d="M22.4 9.467v11.444h12.089v-4.549L27.208 9.47 22.4 9.467zm9.786 9.771h-7.873v-7.697h.556v7.176h7.317v.521zM25.881 23.034l.291-.599h.243l-.424.799v.465h-.22v-.465l-.424-.799h.244l.291.599zm1.249.371h-.49l-.102.294h-.228l.477-1.264h.197l.478 1.264h-.229l-.103-.294zm-.428-.177h.366l-.183-.524-.183.524zm1.293.13c0-.058.016-.112.048-.161s.095-.107.188-.174c-.049-.062-.084-.115-.103-.158s-.029-.085-.029-.126c0-.099.03-.177.09-.234s.141-.087.243-.087c.092 0 .167.027.226.082s.089.121.089.201c0 .053-.013.101-.04.146s-.07.088-.131.132l-.086.063.244.288a.508.508 0 0 0 .053-.232h.183a.632.632 0 0 1-.109.383l.186.22h-.245l-.071-.084c-.09.068-.198.102-.323.102s-.225-.033-.3-.099a.331.331 0 0 1-.112-.26zm.418.19a.326.326 0 0 0 .2-.071l-.276-.326-.027.019c-.069.053-.104.113-.104.181 0 .058.019.106.056.142s.088.055.151.055zm-.116-.814c0 .049.03.11.089.183l.096-.066.027-.022a.157.157 0 0 0 .054-.122c0-.033-.012-.061-.037-.084s-.056-.036-.095-.036c-.041 0-.074.014-.098.042s-.036.063-.036.105zm2.296.554c-.013.135-.063.24-.149.316s-.202.113-.346.113a.46.46 0 0 1-.444-.275.733.733 0 0 1-.065-.306v-.118c0-.119.021-.224.063-.315a.478.478 0 0 1 .455-.284c.14 0 .252.038.337.114s.135.183.148.321h-.219c-.01-.091-.037-.156-.08-.196s-.104-.061-.187-.061c-.095 0-.169.035-.22.105s-.077.172-.078.306v.112c0 .137.024.241.073.313s.121.108.215.108c.086 0 .151-.019.194-.058s.071-.103.082-.194h.219zm1.206-.188c0 .124-.021.233-.064.326a.486.486 0 0 1-.458.29c-.102 0-.194-.025-.274-.075s-.142-.122-.186-.214a.768.768 0 0 1-.066-.32v-.071c0-.123.022-.232.065-.326a.492.492 0 0 1 .459-.292.5.5 0 0 1 .273.075c.08.049.142.12.185.213s.065.201.066.324v.07zm-.22-.066c0-.14-.027-.247-.08-.322s-.128-.112-.225-.112c-.095 0-.169.037-.223.112s-.08.179-.082.315v.073c0 .139.027.246.081.322s.13.114.226.114c.097 0 .172-.037.224-.111s.079-.182.079-.325v-.066z"/></symbol><symbol id="icon-Client2" viewBox="0 0 60 32"><path d="M29.147 7.799h.049c.09 0 .187.009.283.017.424.03.845.093 1.259.19V6.988a7.506 7.506 0 0 0-1.3-.207 9.488 9.488 0 0 0-.525-.025h-.152c-.88.003-1.756.116-2.608.336-.971.242-1.902.621-2.768 1.126v10.097a11.224 11.224 0 0 1 2.638-1.028 11.508 11.508 0 0 1 2.214-.34h.03c.125-.006.25-.01.379-.011v-1.034c-.971.012-1.937.141-2.878.382-.348.09-.684.188-1 .297l-.36.122V8.831l.154-.074a10.057 10.057 0 0 1 3.771-.954c.143-.007.287-.011.428-.011h.162c.075.002.149.004.224.008z"/><path d="M31.684 8.865a9.303 9.303 0 0 1-1.505-.122 8.306 8.306 0 0 1-.47-.095v9.981c.647.16 1.312.239 1.979.233a10.67 10.67 0 0 0 2.608-.335 10.55 10.55 0 0 0 2.768-1.126V7.484c-.833.452-1.719.798-2.637 1.029-.896.23-1.817.348-2.742.352zm3.991.173l.36-.121v7.875l-.154.074a9.849 9.849 0 0 1-1.84.661 9.59 9.59 0 0 1-2.354.305 8.1 8.1 0 0 1-.702-.03l-.246-.022V9.682l.287.019c.209.014.425.02.659.02a12.206 12.206 0 0 0 2.989-.383c.335-.089.669-.188 1-.299zM24.084 21.764a.53.53 0 0 0-.4-.162.607.607 0 0 0-.231.043.515.515 0 0 0-.296.299.588.588 0 0 0-.041.223v1.349a.643.643 0 0 0 .053.277.482.482 0 0 0 .32.277.762.762 0 0 0 .201.028.56.56 0 0 0 .516-.353.53.53 0 0 0 .043-.215v-.151h-.353v.12a.307.307 0 0 1-.021.12.221.221 0 0 1-.051.076.268.268 0 0 1-.148.052.182.182 0 0 1-.165-.073.319.319 0 0 1-.047-.181v-1.258a.44.44 0 0 1 .043-.202c.018-.028.044-.051.075-.066s.064-.02.098-.016c.03-.001.061.005.088.018s.051.033.069.057c.039.052.06.116.058.181v.117h.349v-.137a.633.633 0 0 0-.161-.426zM26.179 21.749a.626.626 0 0 0-.401-.148.6.6 0 0 0-.396.148.56.56 0 0 0-.137.189.617.617 0 0 0-.051.261v1.294a.636.636 0 0 0 .051.265.53.53 0 0 0 .137.181.55.55 0 0 0 .186.114.604.604 0 0 0 .611-.114.542.542 0 0 0 .133-.181.617.617 0 0 0 .051-.265v-1.294a.584.584 0 0 0-.184-.45zm-.165 1.744a.236.236 0 0 1-.07.188.258.258 0 0 1-.332 0 .236.236 0 0 1-.07-.188v-1.294a.238.238 0 0 1 .07-.188.258.258 0 0 1 .332 0 .236.236 0 0 1 .07.188v1.294zM28.931 24.071v-2.449h-.339l-.445 1.297h-.006l-.449-1.297h-.335v2.449h.35v-1.49h.006l.343 1.053h.174l.345-1.053h.006v1.49h.35zM30.918 21.793a.498.498 0 0 0-.198-.134.783.783 0 0 0-.254-.038h-.52v2.449h.349v-.957h.18a.638.638 0 0 0 .315-.067.522.522 0 0 0 .192-.187.586.586 0 0 0 .08-.213c.014-.092.02-.185.019-.278a1.42 1.42 0 0 0-.034-.35.519.519 0 0 0-.129-.225zm-.179.747a.336.336 0 0 1-.032.128.197.197 0 0 1-.09.086.36.36 0 0 1-.165.031h-.159v-.833h.18a.327.327 0 0 1 .157.031.199.199 0 0 1 .082.09.375.375 0 0 1 .031.137v.163c0 .057.004.116 0 .168h-.004zM32.572 21.622h-.286l-.54 2.449h.349l.103-.526h.476l.103.526h.349l-.553-2.449zm-.322 1.589l.172-.888h.006l.171.888h-.349zM34.827 23.097h-.006l-.527-1.476h-.335v2.449h.349v-1.473h.007l.533 1.473h.328v-2.449h-.349v1.476zM36.959 21.622l-.281.974h-.007l-.281-.974h-.37l.479 1.414v1.035h.349v-1.035l.479-1.414h-.369zM23.111 24.762h.168v.472h.114v-.472h.167v-.097h-.45v.097zM24.525 24.666l-.22.569h.121l.047-.129h.227l.049.129h.124l-.226-.569h-.121zm-.018.343l.077-.211.077.211h-.155zM25.923 25.025h.131v.073a.214.214 0 0 1-.135.048c-.023.001-.046-.003-.067-.012s-.039-.024-.054-.042a.237.237 0 0 1-.042-.148c0-.127.055-.19.164-.19.029-.003.057.005.081.021s.041.041.048.069l.112-.022c-.024-.111-.104-.167-.241-.167a.287.287 0 0 0-.199.073.275.275 0 0 0-.082.218.31.31 0 0 0 .073.213c.028.029.062.051.099.065s.077.02.117.018a.342.342 0 0 0 .241-.09v-.224h-.246v.096zM27.35 24.666h-.115v.569h.398v-.097h-.283v-.472zM28.557 24.666h-.115v.569h.115v-.569zM29.737 25.046l-.233-.38h-.112v.569h.107v-.372l.228.372h.114v-.569h-.105v.38zM30.804 24.984h.283v-.097h-.283v-.125h.305v-.097h-.42v.569h.432v-.097h-.317v-.154zM33.391 24.89h-.224v-.224h-.114v.569h.114v-.249h.224v.249h.114v-.569h-.114v.224zM34.464 24.984h.284v-.097h-.284v-.125h.306v-.097h-.42v.569h.431v-.097h-.317v-.154zM35.919 24.984c.099-.015.149-.068.149-.158.003-.024-.001-.049-.01-.071s-.026-.041-.045-.056a.32.32 0 0 0-.166-.033h-.241v.569h.114v-.238h.022a.143.143 0 0 1 .071.013c.017.01.031.025.041.042l.124.181h.137l-.069-.111a.404.404 0 0 0-.126-.137zm-.115-.079h-.085v-.143h.09a.285.285 0 0 1 .116.014c.009.007.015.016.019.027s.006.021.006.032a.075.075 0 0 1-.031.057.327.327 0 0 1-.116.014zM37.017 24.984h.283v-.097h-.283v-.125h.306v-.097h-.421v.569h.432v-.097h-.317v-.154z"/></symbol><symbol id="icon-Client3" viewBox="0 0 60 32"><path d="M25.367 23.394c.005 0 .011.001.015.003s.009.005.013.009l.073.077a.604.604 0 0 1-.206.146.727.727 0 0 1-.292.052.711.711 0 0 1-.274-.049.592.592 0 0 1-.341-.351.773.773 0 0 1-.047-.273.739.739 0 0 1 .05-.274.642.642 0 0 1 .142-.213.654.654 0 0 1 .22-.139.799.799 0 0 1 .283-.049.704.704 0 0 1 .262.044c.072.03.139.072.197.123l-.061.082a.046.046 0 0 1-.016.015c-.007.005-.016.007-.025.006s-.019-.004-.027-.009l-.033-.022-.046-.028a.597.597 0 0 0-.253-.058.537.537 0 0 0-.203.037.454.454 0 0 0-.262.267.592.592 0 0 0-.037.216.636.636 0 0 0 .037.22c.022.06.057.116.102.163a.414.414 0 0 0 .152.101c.06.024.124.035.188.035a.702.702 0 0 0 .112-.007.42.42 0 0 0 .241-.112.05.05 0 0 1 .035-.014zM27.48 23.008a.742.742 0 0 1-.049.271c-.03.079-.077.15-.138.21s-.135.107-.216.138a.817.817 0 0 1-.556 0 .627.627 0 0 1-.354-.352.77.77 0 0 1 0-.543.623.623 0 0 1 .139-.213.627.627 0 0 1 .215-.133.805.805 0 0 1 .556 0 .609.609 0 0 1 .354.349.71.71 0 0 1 .049.273zm-.192 0a.623.623 0 0 0-.035-.218.43.43 0 0 0-.253-.266.585.585 0 0 0-.404 0 .43.43 0 0 0-.254.266.692.692 0 0 0 0 .436.45.45 0 0 0 .099.163.44.44 0 0 0 .155.102c.13.046.274.046.404 0a.427.427 0 0 0 .253-.265.623.623 0 0 0 .035-.218zM28.921 23.237l.019.049a2.405 2.405 0 0 1 .045-.097l.467-.809c.009-.014.017-.023.027-.025a.097.097 0 0 1 .038-.004h.138v1.316h-.164v-.968-.041-.045l-.47.821c-.006.012-.016.023-.028.03s-.026.011-.04.011h-.027c-.014 0-.028-.004-.04-.011s-.022-.018-.027-.03l-.484-.826v1.057h-.158v-1.314h.138a.12.12 0 0 1 .038.004c.011.005.02.014.026.025l.477.81a.416.416 0 0 1 .024.047zM30.68 23.171v.493h-.183v-1.315h.408a.797.797 0 0 1 .228.029.44.44 0 0 1 .161.082.33.33 0 0 1 .091.129.424.424 0 0 1 .031.168.373.373 0 0 1-.133.3.446.446 0 0 1-.162.087.684.684 0 0 1-.22.03l-.221-.003zm0-.141h.221a.456.456 0 0 0 .142-.02.277.277 0 0 0 .102-.057.232.232 0 0 0 .062-.087.282.282 0 0 0 .022-.111.244.244 0 0 0-.082-.197.371.371 0 0 0-.246-.071h-.221v.542zM33.138 23.666h-.145a.07.07 0 0 1-.04-.012.086.086 0 0 1-.024-.03l-.124-.318h-.625l-.129.318a.076.076 0 0 1-.023.03.061.061 0 0 1-.041.013h-.145l.549-1.317h.19l.556 1.317zm-.905-.489h.516l-.218-.536a.9.9 0 0 1-.041-.124l-.021.069c-.006.021-.014.04-.02.056l-.216.535zM33.928 22.356c.011.006.02.014.027.024l.8.992v-.046V22.35h.164v1.317h-.091c-.013 0-.026-.002-.037-.008s-.021-.015-.029-.024l-.799-.992v.045.978h-.164v-1.317h.097c.011 0 .023.002.033.006zM36.268 23.143v.523h-.183v-.523l-.506-.793h.164a.06.06 0 0 1 .039.011c.01.008.018.018.025.03l.316.512a.765.765 0 0 1 .056.117l.024-.057a.425.425 0 0 1 .031-.06l.312-.515a.127.127 0 0 1 .024-.028.056.056 0 0 1 .039-.013h.166l-.507.796zM28.831 20.14c.08.01.16.017.241.024 1.234-.526 2.278-1.387 3.001-2.475s1.094-2.355 1.066-3.643l-1.36-1.296c.276 1.371.147 2.788-.374 4.093s-1.412 2.446-2.575 3.296z"/><path d="M28.345 20.08l.037.007c1.242-.847 2.19-2.029 2.719-3.394s.617-2.85.251-4.263l-1.937-1.845c.783 1.517 1.099 3.215.909 4.895s-.876 3.276-1.979 4.6zM34.914 15.568a6.683 6.683 0 0 1-2.279 3.639 7.271 7.271 0 0 1-1.083.741c.937-.262 1.798-.726 2.517-1.356s1.277-1.408 1.63-2.276l-.785-.748z"/><path d="M34.606 15.36l-1.118-1.066c-.021 1.215-.384 2.402-1.05 3.438s-1.611 1.884-2.737 2.454h.006c.251 0 .502-.014.751-.043 1.052-.409 1.982-1.06 2.706-1.895s1.22-1.827 1.443-2.889zM28.507 9.806l-1.334-1.273c-1.193.439-2.219 1.211-2.943 2.215s-1.114 2.193-1.118 3.411c.004 1.346.48 2.653 1.352 3.712s2.089 1.812 3.46 2.139c1.224-1.421 1.94-3.176 2.045-5.011s-.407-3.654-1.461-5.193zM37.689 15.164c-.005-1.597-.673-3.128-1.858-4.257s-2.792-1.766-4.468-1.771a6.51 6.51 0 0 0-2.265.402l8.17 7.783a5.7 5.7 0 0 0 .422-2.157z"/></symbol><symbol id="icon-Client4" viewBox="0 0 60 32"><path d="M20.41 13.095h-.001c-.804 0-1.456.635-1.456 1.419v.001c0 .784.652 1.419 1.456 1.419h.001c.804 0 1.456-.635 1.456-1.419v-.001c0-.784-.652-1.419-1.456-1.419zM31.16 12.642c-.002-1.089-.447-2.132-1.237-2.902s-1.861-1.204-2.978-1.206c-1.118.002-2.189.435-2.979 1.205s-1.235 1.814-1.238 2.903v6.004s8.43-.915 8.431-6.003v-.001zM16 20.616c.002.758.312 1.484.861 2.019s1.294.838 2.072.84c.777-.002 1.522-.304 2.071-.84s.859-1.261.862-2.019v-4.178S16 17.075 16 20.615zm2.933.748c-.152 0-.3-.044-.427-.126a.746.746 0 0 1-.327-.768c.03-.145.103-.279.21-.383a.778.778 0 0 1 1.182.114.73.73 0 0 1 .071.703.766.766 0 0 1-.711.464v-.003zM24.921 20.9h-.6v.62h-.313v-1.517h.988v.253h-.675v.392h.6v.252zm1.502-.104c0 .149-.026.28-.079.393s-.128.199-.227.26a.624.624 0 0 1-.337.092c-.126 0-.238-.03-.336-.091s-.175-.147-.229-.258a.889.889 0 0 1-.082-.388v-.075c0-.149.027-.281.08-.394a.595.595 0 0 1 .566-.353c.127 0 .239.031.336.092.099.06.175.148.228.261s.081.244.081.393v.068zm-.317-.069c0-.159-.028-.28-.085-.363s-.138-.124-.244-.124c-.105 0-.186.041-.243.123s-.086.201-.086.358v.074c0 .155.028.275.085.36s.139.128.246.128c.105 0 .185-.041.242-.123s.085-.203.085-.36v-.074zm1.33.395c0-.059-.021-.104-.063-.135s-.117-.065-.225-.1a1.588 1.588 0 0 1-.257-.104c-.172-.093-.258-.218-.258-.376 0-.082.023-.155.069-.219s.113-.115.199-.151c.087-.036.184-.054.292-.054s.205.02.29.059a.436.436 0 0 1 .268.41h-.313c0-.069-.022-.123-.066-.161s-.105-.058-.184-.058c-.076 0-.136.016-.178.049s-.064.074-.064.127c0 .049.025.091.074.124s.123.065.22.094c.178.053.307.12.389.199s.122.178.122.296c0 .131-.05.234-.149.309s-.233.111-.401.111c-.117 0-.223-.021-.319-.064s-.169-.102-.22-.176a.45.45 0 0 1-.075-.258h.314c0 .167.1.251.3.251.074 0 .132-.015.174-.045s.063-.073.063-.127zm1.668-.866h-.465v1.264h-.313v-1.264h-.458v-.253h1.235v.253zm1.092.607h-.6v.406h.704v.251h-1.017v-1.517h1.015v.253h-.702v.361h.6v.245zm.849.102h-.249v.555h-.313v-1.517h.564c.179 0 .317.04.415.12s.146.193.146.339c0 .103-.023.19-.068.259s-.112.124-.203.165l.328.62v.015h-.335l-.284-.555zm-.249-.254h.252c.078 0 .139-.02.182-.059s.065-.096.065-.166c0-.072-.02-.128-.061-.169s-.102-.061-.186-.061h-.251v.455zm1.893.274v.534h-.313v-1.517h.592c.114 0 .214.021.3.063a.469.469 0 0 1 .27.439c0 .149-.051.266-.153.352s-.242.128-.422.128h-.274zm0-.253h.279c.083 0 .145-.019.189-.058s.066-.094.066-.167c0-.074-.022-.134-.066-.18s-.104-.069-.181-.071h-.286v.476zm1.977.131h-.6v.406h.704v.251h-1.017v-1.517h1.015v.253h-.702v.361h.6v.245zm1.451-.607h-.465v1.264h-.313v-1.264h-.458v-.253h1.236v.253zm1.091.607h-.6v.406h.704v.251h-1.017v-1.517h1.014v.253h-.702v.361h.6v.245zm.849.102h-.249v.555h-.312v-1.517h.564c.179 0 .317.04.415.12s.146.193.146.339c0 .103-.023.19-.068.259s-.112.124-.203.165l.328.62v.015h-.336l-.284-.555zm-.249-.254h.252c.079 0 .139-.02.182-.059s.065-.096.065-.166c0-.072-.021-.128-.062-.169s-.102-.061-.186-.061h-.251v.455zm1.836.411c0-.059-.021-.104-.062-.135s-.117-.065-.225-.1a1.588 1.588 0 0 1-.257-.104c-.172-.093-.258-.218-.258-.376 0-.082.023-.155.069-.219s.113-.115.199-.151c.087-.036.184-.054.292-.054s.205.02.289.059a.436.436 0 0 1 .268.41h-.313c0-.069-.022-.123-.065-.161s-.105-.058-.185-.058c-.076 0-.136.016-.178.049s-.063.074-.063.127c0 .049.025.091.074.124s.123.065.22.094c.178.053.307.12.389.199s.122.178.122.296c0 .131-.049.234-.149.309s-.233.111-.401.111c-.117 0-.223-.021-.319-.064s-.169-.102-.22-.176a.45.45 0 0 1-.075-.258h.314c0 .167.1.251.3.251.074 0 .133-.015.174-.045s.062-.073.062-.127z"/></symbol><symbol id="icon-Client5" viewBox="0 0 60 32"><path d="M21.507 21.788a.559.559 0 0 1 .123.359.576.576 0 0 1-.191.454.829.829 0 0 1-.554.166h-.974V20.49h.954a.814.814 0 0 1 .529.151.515.515 0 0 1 .185.426.526.526 0 0 1-.111.348.52.52 0 0 1-.29.178.555.555 0 0 1 .329.195zm-1.143-.344h.408a.381.381 0 0 0 .259-.076.274.274 0 0 0 .088-.223.277.277 0 0 0-.086-.223.4.4 0 0 0-.267-.077h-.401v.597zm.707.873a.286.286 0 0 0 .096-.231.284.284 0 0 0-.098-.233.418.418 0 0 0-.277-.082h-.428v.626h.433a.426.426 0 0 0 .274-.079zM23.457 22.767l-.531-.89h-.199v.89h-.456V20.49h.864a.85.85 0 0 1 .602.194.732.732 0 0 1 .064.942.699.699 0 0 1-.412.231l.565.91h-.496zm-.73-1.201h.373c.259 0 .389-.115.389-.345.003-.047-.004-.094-.021-.138s-.042-.084-.074-.118a.402.402 0 0 0-.294-.092h-.378l.004.693zM25.952 22.308h-.91l-.161.458h-.479l.835-2.252h.517l.832 2.252h-.479l-.157-.458zm-.122-.345l-.332-.961-.332.961h.665zM29.076 22.767h-.453l-1.016-1.549v1.549h-.452V20.49h.452l1.016 1.558V20.49h.453v2.277zM31.662 22.222a.98.98 0 0 1-.41.402 1.34 1.34 0 0 1-.637.144h-.807v-2.277h.807c.221-.006.439.042.637.14a.969.969 0 0 1 .41.397 1.331 1.331 0 0 1 0 1.194zm-.518-.055a.837.837 0 0 0 0-1.086.785.785 0 0 0-.567-.194h-.315v1.474h.315a.785.785 0 0 0 .567-.194zM26.236 7.822s5.849 2.217 5.725 5.426v5.427s-5.845-2.218-5.723-5.427l-.002-5.426zM37.172 17.404a8.001 8.001 0 0 1 3.717-1.375V14.33a7.635 7.635 0 0 0-3.717 3.074z"/><path d="M36.509 17.916a7.959 7.959 0 0 1 4.38-3.942V9.079s-8.33 3.158-8.154 7.728v7.726s.371-.141.955-.406c0-.247 0-.496.027-.747a8.04 8.04 0 0 1 2.792-5.465z"/><path d="M35.717 20.786a8.016 8.016 0 0 1 .291-1.582 7.481 7.481 0 0 0-1.764 4.667 24.023 24.023 0 0 0 1.602-.848 7.996 7.996 0 0 1-.129-2.237zM36.048 20.814a7.687 7.687 0 0 0 .103 2.026c2.276-1.367 4.833-3.48 4.735-6.033v-.223a7.458 7.458 0 0 0-4.33 2.031 7.618 7.618 0 0 0-.507 2.198z"/></symbol><symbol id="icon-Client6" viewBox="0 0 60 32"><path d="M30.485 15.415a1.155 1.155 0 0 1-.203-.731v-1.06c0-.325.067-.572.202-.741s.365-.253.693-.252c.308 0 .526.072.655.216a.938.938 0 0 1 .194.634v.249h-.55v-.252a1.361 1.361 0 0 0-.016-.247.246.246 0 0 0-.079-.147.294.294 0 0 0-.199-.057.32.32 0 0 0-.21.06.285.285 0 0 0-.091.162 1.357 1.357 0 0 0-.022.262v1.287a.707.707 0 0 0 .071.361c.027.038.065.069.11.088s.094.026.142.02c.07.005.14-.015.195-.058a.262.262 0 0 0 .082-.156c.013-.085.019-.172.017-.258v-.261h.55v.238a1.04 1.04 0 0 1-.19.667c-.127.157-.342.236-.659.236s-.556-.084-.692-.259zM32.777 15.425c-.139-.165-.209-.406-.209-.724v-1.115c0-.315.069-.553.209-.715s.371-.242.697-.242c.324 0 .555.081.694.242s.21.4.21.715v1.116c0 .315-.071.557-.212.723s-.371.249-.692.249-.557-.084-.697-.248zm.954-.267a.674.674 0 0 0 .066-.33v-1.366a.664.664 0 0 0-.065-.324c-.028-.039-.067-.07-.112-.089s-.096-.026-.145-.019c-.049-.007-.1 0-.146.019s-.085.05-.113.089a.639.639 0 0 0-.066.324v1.372a.661.661 0 0 0 .066.33.34.34 0 0 0 .257.111.36.36 0 0 0 .257-.111v-.006zM35.04 12.662h.593l.446 2.058.456-2.058h.577l.058 2.971h-.426l-.045-2.065-.44 2.065h-.342l-.456-2.072-.042 2.072h-.431l.054-2.971zM37.833 12.662h.923c.532 0 .797.281.797.844 0 .539-.28.808-.84.807h-.314v1.32h-.57l.004-2.971zm.789 1.269a.41.41 0 0 0 .313-.093.518.518 0 0 0 .082-.335 1.024 1.024 0 0 0-.027-.27.231.231 0 0 0-.114-.142.54.54 0 0 0-.254-.047h-.221v.888h.221zM40.375 12.662h.612l.628 2.971h-.531l-.124-.685h-.546l-.128.685h-.539l.628-2.971zm.523 1.941l-.213-1.247-.213 1.247h.426zM42.122 12.662h.399l.763 1.695v-1.695h.473v2.971h-.379l-.768-1.769v1.769h-.489l.001-2.971zM44.865 14.5l-.635-1.834h.535l.387 1.178.364-1.178h.523l-.627 1.834v1.133h-.547V14.5zM31.365 16.931v.155H30.9v1.207h-.195v-1.207h-.467v-.155h1.127zM32.823 18.294h-.15a.064.064 0 0 1-.042-.013.075.075 0 0 1-.025-.031l-.134-.324h-.645l-.134.324a.102.102 0 0 1-.02.037.064.064 0 0 1-.042.013h-.15l.57-1.362h.198l.577 1.357zm-.944-.506h.538l-.228-.555a1.007 1.007 0 0 1-.042-.128l-.022.072-.02.057-.226.553zM33.805 18.16a.56.56 0 0 0 .198-.016.596.596 0 0 0 .082-.025l.076-.033v-.306h-.228c-.006 0-.011 0-.017-.002s-.01-.005-.014-.008-.007-.007-.009-.011-.003-.009-.003-.014v-.105h.442v.522c-.036.024-.074.046-.114.065s-.083.035-.126.046a.99.99 0 0 1-.142.028 1.539 1.539 0 0 1-.166.009.78.78 0 0 1-.287-.051.69.69 0 0 1-.228-.142.663.663 0 0 1-.199-.499.773.773 0 0 1 .051-.285.633.633 0 0 1 .375-.357.88.88 0 0 1 .305-.051c.053 0 .106.004.158.012a.715.715 0 0 1 .349.16l-.055.084c-.004.008-.011.014-.019.019s-.017.007-.026.007a.06.06 0 0 1-.035-.011.928.928 0 0 1-.056-.032.533.533 0 0 0-.181-.067.878.878 0 0 0-.145-.012.61.61 0 0 0-.22.038.467.467 0 0 0-.273.277.693.693 0 0 0 0 .454.502.502 0 0 0 .28.28.574.574 0 0 0 .226.027zM35.621 18.138h.622v.155h-.812V16.93h.195l-.005 1.207zM36.891 18.294h-.195v-1.363h.195v1.363zM37.616 16.938a.088.088 0 0 1 .029.025l.833 1.027a.4.4 0 0 1 0-.049v-1.015h.17v1.368h-.098a.085.085 0 0 1-.042-.008.13.13 0 0 1-.031-.026l-.832-1.026v1.059h-.163V16.93h.101c.011 0 .022.002.032.006zM40.083 16.931v.15h-.691v.45h.56v.145h-.56v.465h.691v.15h-.891v-1.359h.891zM19.663 8.517l8.652 2.326v8.15l-8.652-2.325V8.517zm-.555-.695v9.242l9.761 2.625v-9.241l-9.761-2.626z"/><path d="M24.34 23.979l-9.762-2.627v-9.241l9.762 2.626v9.242z"/><path d="M19.27 8.412l8.54 2.297-3.632 3.439-8.541-2.298 3.633-3.438zm-.162-.59l-4.531 4.289 9.762 2.626 4.53-4.289-9.761-2.626zM24.889 23.459l3.98-3.769-3.98-1.071v4.84z"/> </symbol><symbol id="icon-icon_send" viewBox="0 0 32 32"><path fill="var(--color1, #fff)" d="M32 0L0 18l10.227 3.788L26 7 14.002 23.186l.01.004-.012-.004V32l5.735-6.691L27 28l5-28z"/></symbol> <symbol id="icon-email-black" viewBox="0 0 32 32"><path d="M26.667 5.333H5.334A2.663 2.663 0 0 0 2.681 8l-.013 16c0 1.467 1.2 2.667 2.667 2.667h21.333c1.467 0 2.667-1.2 2.667-2.667V8c0-1.467-1.2-2.667-2.667-2.667zM26.133 11l-9.427 5.893a1.346 1.346 0 0 1-1.413 0L5.866 11a1.132 1.132 0 1 1 1.2-1.92l8.933 5.587 8.933-5.587a1.132 1.132 0 1 1 1.2 1.92z"/></symbol><symbol id="icon-person" viewBox="0 0 32 32"><path d="M16 16c2.947 0 5.333-2.387 5.333-5.333S18.946 5.334 16 5.334c-2.947 0-5.333 2.387-5.333 5.333S13.054 16 16 16zm0 2.667c-3.56 0-10.667 1.787-10.667 5.333v1.333c0 .733.6 1.333 1.333 1.333h18.667c.733 0 1.333-.6 1.333-1.333V24c0-3.547-7.107-5.333-10.667-5.333z"/></symbol><symbol id="icon-phone-black" viewBox="0 0 32 32"><path d="M24.882 19.773l-3.268-.373a2.561 2.561 0 0 0-2.11.733L17.137 22.5a19.357 19.357 0 0 1-8.478-8.478l2.38-2.38a2.561 2.561 0 0 0 .733-2.11l-.373-3.242a2.575 2.575 0 0 0-2.56-2.277H6.613c-1.454 0-2.663 1.209-2.573 2.663.682 10.987 9.469 19.761 20.443 20.443 1.454.09 2.663-1.119 2.663-2.573V22.32a2.549 2.549 0 0 0-2.264-2.547z"/></symbol><symbol id="icon-Form" viewBox="0 0 24 32"><path fill="var(--color1, #fff)" d="M.156.312c0-.115.093-.208.208-.208h22.998c.115 0 .208.093.208.208v31.272a.208.208 0 0 1-.208.208H.364a.208.208 0 0 1-.208-.208V.312z"/></symbol><symbol id="icon-email-black" viewBox="0 0 32 32"><path d="M26.667 5.333H5.334A2.663 2.663 0 0 0 2.681 8l-.013 16c0 1.467 1.2 2.667 2.667 2.667h21.333c1.467 0 2.667-1.2 2.667-2.667V8c0-1.467-1.2-2.667-2.667-2.667zM26.133 11l-9.427 5.893a1.346 1.346 0 0 1-1.413 0L5.866 11a1.132 1.132 0 1 1 1.2-1.92l8.933 5.587 8.933-5.587a1.132 1.132 0 1 1 1.2 1.92z"/></symbol><symbol id="icon-person" viewBox="0 0 32 32"><path d="M16 16c2.947 0 5.333-2.387 5.333-5.333S18.946 5.334 16 5.334c-2.947 0-5.333 2.387-5.333 5.333S13.054 16 16 16zm0 2.667c-3.56 0-10.667 1.787-10.667 5.333v1.333c0 .733.6 1.333 1.333 1.333h18.667c.733 0 1.333-.6 1.333-1.333V24c0-3.547-7.107-5.333-10.667-5.333z"/></symbol><symbol id="icon-phone-black" viewBox="0 0 32 32"><path d="M24.882 19.773l-3.268-.373a2.561 2.561 0 0 0-2.11.733L17.137 22.5a19.357 19.357 0 0 1-8.478-8.478l2.38-2.38a2.561 2.561 0 0 0 .733-2.11l-.373-3.242a2.575 2.575 0 0 0-2.56-2.277H6.613c-1.454 0-2.663 1.209-2.573 2.663.682 10.987 9.469 19.761 20.443 20.443 1.454.09 2.663-1.119 2.663-2.573V22.32a2.549 2.549 0 0 0-2.264-2.547z"/></symbol><symbol id="icon-close" viewBox="0 0 32 32"><path fill="var(--color1, #2196f3)" d="M26.667 9.081l-1.97-1.97-7.808 7.808-7.808-7.808-1.97 1.97 7.808 7.808-7.808 7.808 1.97 1.97 7.808-7.808 7.808 7.808 1.97-1.97-7.808-7.808 7.808-7.808z"/></symbol>
</defs></svg> 